<svg width="659.5px" height="122.4px" xmlns="http://www.w3.org/2000/svg" viewBox="-79.74001464843747 13.800003051757812 659.4800292968749 122.39999389648438" style="background: rgba(0, 0, 0, 0) none repeat scroll 0% 0%" preserveAspectRatio="xMidYMid"><defs><linearGradient id="editing-gradow-gradient" x1="0" x2="1" y1="0.5" y2="0.5" gradientUnits="objectBoundingBox"><stop offset="0" stop-color="#0082ff"></stop><stop offset="1" stop-color="#0082ff"></stop></linearGradient><filter id="editing-gradow-filter" x="-100%" y="-100%" width="300%" height="300%"><feFlood flood-color="#fffcd9" result="flood"></feFlood><feComposite operator="in" in2="SourceAlpha" in="flood" result="shadow"></feComposite><feOffset dx="-4" dy="-4" in="SourceGraphic" result="offset-1"></feOffset><feOffset dx="4" dy="4" in="shadow" result="offset-2"></feOffset><feMerge><feMergeNode in="offset-2"></feMergeNode><feMergeNode in="offset-1"></feMergeNode></feMerge></filter></defs><g transform="matrix(1,0,0,1,0.3,0.1)" filter="url(#editing-gradow-filter)"><g transform="matrix(1.3,0,0,1.6,-55,177.3)"><path d="M -0.7 -44.3 L -14.6 -44.3 L -6.5 -86.6 L 7.6 -86.6 L -0.7 -44.3 Z M 55.1 -43.1 L 55.1 -43.1 L 55.1 -43.1 Q 47.3 -43.1 47.3 -49.1 L 47.3 -49.1 L 47.3 -49.1 Q 47.3 -51.7 48.4 -56.8 L 48.4 -56.8 L 48.4 -56.8 Q 49.6 -61.9 49.9 -63.9 L 49.9 -63.9 L 49.9 -63.9 Q 50.8 -68.6 50.8 -70.1 L 50.8 -70.1 L 50.8 -70.1 Q 50.8 -73.3 48.4 -73.3 L 48.4 -73.3 L 48.4 -73.3 Q 46.8 -73.3 45.3 -71.1 L 45.3 -71.1 L 45.3 -71.1 Q 43.7 -68.9 43 -64.5 L 43 -64.5 L 39.1 -44.3 L 26.6 -43.1 L 30 -60.5 L 30 -60.5 Q 30.6 -63.3 31.1 -66.6 L 31.1 -66.6 L 31.1 -66.6 Q 31.6 -69.9 31.6 -70.4 L 31.6 -70.4 L 31.6 -70.4 Q 31.6 -73.3 29.5 -73.3 L 29.5 -73.3 L 29.5 -73.3 Q 28 -73.3 26.4 -71.2 L 26.4 -71.2 L 26.4 -71.2 Q 24.8 -69 23.9 -64.5 L 23.9 -64.5 L 20 -44.3 L 7.4 -43.1 L 14.1 -77 L 24.5 -78.3 L 23.4 -71.8 L 23.4 -71.8 Q 25.1 -75.2 28.2 -76.8 L 28.2 -76.8 L 28.2 -76.8 Q 31.3 -78.3 36.1 -78.3 L 36.1 -78.3 L 36.1 -78.3 Q 38.8 -78.3 40.6 -76.9 L 40.6 -76.9 L 40.6 -76.9 Q 42.4 -75.6 43 -73.4 L 43 -73.4 L 43 -73.4 Q 44.1 -75.6 46.8 -76.9 L 46.8 -76.9 L 46.8 -76.9 Q 49.6 -78.3 53 -78.3 L 53 -78.3 L 53 -78.3 Q 56.5 -78.3 58.2 -77.5 L 58.2 -77.5 L 58.2 -77.5 Q 59.9 -76.8 60.9 -75.6 L 60.9 -75.6 L 60.9 -75.6 Q 62.6 -73.3 62.6 -69.2 L 62.6 -69.2 L 62.6 -69.2 Q 62.6 -65.2 60.9 -56.8 L 60.9 -56.8 L 60.9 -56.8 Q 60 -52.7 60 -51.2 L 60 -51.2 L 60 -51.2 Q 60 -49.7 60.9 -48.8 L 60.9 -48.8 L 60.9 -48.8 Q 61.7 -47.9 63 -47.8 L 63 -47.8 L 63 -47.8 Q 62.4 -45.6 60.2 -44.3 L 60.2 -44.3 L 60.2 -44.3 Q 57.9 -43.1 55.1 -43.1 Z M 70.7 -46.3 L 70.7 -46.3 L 70.7 -46.3 Q 69.2 -47.9 68.5 -50.5 L 68.5 -50.5 L 68.5 -50.5 Q 67.9 -53.2 67.9 -57.5 L 67.9 -57.5 L 67.9 -57.5 Q 67.9 -61.7 69.3 -65.6 L 69.3 -65.6 L 69.3 -65.6 Q 70.8 -69.6 73.5 -72.4 L 73.5 -72.4 L 73.5 -72.4 Q 79 -78.3 88.1 -78.3 L 88.1 -78.3 L 88.1 -78.3 Q 91.4 -78.3 93.7 -77.2 L 93.7 -77.2 L 104.7 -78.3 L 99.9 -53.3 L 99.9 -53.3 Q 99.7 -52.5 99.7 -51.1 L 99.7 -51.1 L 99.7 -51.1 Q 99.7 -49.7 100.6 -48.8 L 100.6 -48.8 L 100.6 -48.8 Q 101.5 -47.9 102.7 -47.8 L 102.7 -47.8 L 102.7 -47.8 Q 102.1 -45.6 99.8 -44.3 L 99.8 -44.3 L 99.8 -44.3 Q 97.4 -43.1 94.8 -43.1 L 94.8 -43.1 L 94.8 -43.1 Q 92.2 -43.1 90.4 -44 L 90.4 -44 L 90.4 -44 Q 88.7 -45 88.2 -46.7 L 88.2 -46.7 L 88.2 -46.7 Q 87.1 -45.1 85 -44.1 L 85 -44.1 L 85 -44.1 Q 82.8 -43.1 79.9 -43.1 L 79.9 -43.1 L 79.9 -43.1 Q 77 -43.1 74.6 -43.8 L 74.6 -43.8 L 74.6 -43.8 Q 72.2 -44.6 70.7 -46.3 Z M 84.2 -72.2 L 84.2 -72.2 L 84.2 -72.2 Q 83.5 -71.1 82.8 -69.1 L 82.8 -69.1 L 82.8 -69.1 Q 82.2 -67.2 81.1 -62 L 81.1 -62 L 81.1 -62 Q 80.1 -56.8 80.1 -53 L 80.1 -53 L 80.1 -53 Q 80.1 -49.3 80.7 -48.2 L 80.7 -48.2 L 80.7 -48.2 Q 81.2 -47.2 82.3 -47.2 L 82.3 -47.2 L 82.3 -47.2 Q 84.3 -47.2 85.8 -49.1 L 85.8 -49.1 L 85.8 -49.1 Q 87.3 -51.1 87.9 -54.5 L 87.9 -54.5 L 91.3 -73.3 L 91.3 -73.3 Q 89.9 -74.4 88.4 -74.4 L 88.4 -74.4 L 88.4 -74.4 Q 86.8 -74.4 85.9 -73.9 L 85.9 -73.9 L 85.9 -73.9 Q 85 -73.4 84.2 -72.2 Z M 112.4 -71.1 L 112.4 -71.1 L 112.4 -71.1 Q 114.6 -74.2 117.9 -76.2 L 117.9 -76.2 L 117.9 -76.2 Q 121.2 -78.3 125.2 -78.3 L 125.2 -78.3 L 125.2 -78.3 Q 129.2 -78.3 131.2 -77 L 131.2 -77 L 143.7 -78.3 L 139.4 -53.7 L 139.4 -53.7 Q 137.1 -41.1 132.4 -36.2 L 132.4 -36.2 L 132.4 -36.2 Q 127.8 -31.5 119 -31.5 L 119 -31.5 L 119 -31.5 Q 112.3 -31.5 108.4 -33.6 L 108.4 -33.6 L 108.4 -33.6 Q 104.6 -35.8 104.6 -39.3 L 104.6 -39.3 L 104.6 -39.3 Q 104.6 -41.9 106.6 -43.4 L 106.6 -43.4 L 106.6 -43.4 Q 108.6 -44.9 111.6 -44.9 L 111.6 -44.9 L 111.6 -44.9 Q 114.3 -44.9 116.4 -43.7 L 116.4 -43.7 L 116.4 -43.7 Q 117.6 -43.1 118.2 -42.2 L 118.2 -42.2 L 118.2 -42.2 Q 116.7 -40.9 116.7 -38.8 L 116.7 -38.8 L 116.7 -38.8 Q 116.7 -36 119.3 -36 L 119.3 -36 L 119.3 -36 Q 123.5 -36 126 -46.1 L 126 -46.1 L 126 -46.1 Q 126.7 -48.9 127.3 -51.6 L 127.3 -51.6 L 127.3 -51.6 Q 124.4 -48.1 117.8 -48.1 L 117.8 -48.1 L 117.8 -48.1 Q 113.3 -48.1 110.7 -50.3 L 110.7 -50.3 L 110.7 -50.3 Q 108.1 -52.5 108.1 -57.6 L 108.1 -57.6 L 108.1 -57.6 Q 108.1 -60.8 109.1 -64.4 L 109.1 -64.4 L 109.1 -64.4 Q 110.2 -68 112.4 -71.1 Z M 120.7 -57.4 L 120.7 -57.4 L 120.7 -57.4 Q 120.7 -53 123 -53 L 123 -53 L 123 -53 Q 124.5 -53 126 -54.7 L 126 -54.7 L 126 -54.7 Q 127.1 -56 127.6 -58 L 127.6 -58 L 130.8 -74.5 L 130.8 -74.5 Q 130.5 -74.5 130.2 -74.7 L 130.2 -74.7 L 130.2 -74.7 Q 129.6 -74.9 128.7 -74.9 L 128.7 -74.9 L 128.7 -74.9 Q 124.8 -74.9 122.5 -68.5 L 122.5 -68.5 L 122.5 -68.5 Q 120.7 -63.5 120.7 -57.4 Z M 172.1 -55.2 L 172.1 -55.2 L 172.1 -55.2 Q 173.7 -54.1 173.7 -51.7 L 173.7 -51.7 L 173.7 -51.7 Q 173.7 -49.3 172.5 -47.7 L 172.5 -47.7 L 172.5 -47.7 Q 171.3 -46.2 169.3 -45.2 L 169.3 -45.2 L 169.3 -45.2 Q 165.2 -43.1 160.8 -43.1 L 160.8 -43.1 L 160.8 -43.1 Q 156.4 -43.1 153.8 -44 L 153.8 -44 L 153.8 -44 Q 151.2 -45 149.5 -46.8 L 149.5 -46.8 L 149.5 -46.8 Q 146.1 -50.2 146.1 -56.4 L 146.1 -56.4 L 146.1 -56.4 Q 146.1 -66 151.3 -71.9 L 151.3 -71.9 L 151.3 -71.9 Q 157 -78.3 166.7 -78.3 L 166.7 -78.3 L 166.7 -78.3 Q 172.8 -78.3 175.8 -75.7 L 175.8 -75.7 L 175.8 -75.7 Q 178.1 -73.8 178.1 -70.6 L 178.1 -70.6 L 178.1 -70.6 Q 178.1 -59.4 158.6 -59.4 L 158.6 -59.4 L 158.6 -59.4 Q 158.4 -57.7 158.4 -56.3 L 158.4 -56.3 L 158.4 -56.3 Q 158.4 -53.4 159.7 -52.2 L 159.7 -52.2 L 159.7 -52.2 Q 161 -51.1 163.4 -51.1 L 163.4 -51.1 L 163.4 -51.1 Q 165.8 -51.1 168.4 -52.2 L 168.4 -52.2 L 168.4 -52.2 Q 171 -53.4 172.1 -55.2 Z M 159.1 -62.1 L 159.1 -62.1 L 159.1 -62.1 Q 163.6 -62.1 166.2 -64.9 L 166.2 -64.9 L 166.2 -64.9 Q 168.9 -67.6 168.9 -71.9 L 168.9 -71.9 L 168.9 -71.9 Q 168.9 -73.4 168.3 -74.2 L 168.3 -74.2 L 168.3 -74.2 Q 167.8 -75 166.7 -75 L 166.7 -75 L 166.7 -75 Q 165.6 -75 164.7 -74.6 L 164.7 -74.6 L 164.7 -74.6 Q 163.7 -74.2 162.8 -72.8 L 162.8 -72.8 L 162.8 -72.8 Q 160.4 -69.6 159.1 -62.1 Z M 199.4 -66.8 L 199.4 -66.8 L 199.4 -66.8 Q 200.3 -69.2 200.3 -71.2 L 200.3 -71.2 L 200.3 -71.2 Q 200.3 -75 197.2 -75 L 197.2 -75 L 197.2 -75 Q 195.6 -75 194.3 -73.6 L 194.3 -73.6 L 194.3 -73.6 Q 193 -72.1 193 -70.3 L 193 -70.3 L 193 -70.3 Q 193 -69 194 -68 L 194 -68 L 194 -68 Q 195.5 -66.6 199.3 -64.3 L 199.3 -64.3 L 199.3 -64.3 Q 203 -62 204.5 -60.1 L 204.5 -60.1 L 204.5 -60.1 Q 205.9 -58.2 205.9 -55.6 L 205.9 -55.6 L 205.9 -55.6 Q 205.9 -53 204.7 -50.7 L 204.7 -50.7 L 204.7 -50.7 Q 203.4 -48.3 201.2 -46.6 L 201.2 -46.6 L 201.2 -46.6 Q 196.4 -43.1 188.7 -43.1 L 188.7 -43.1 L 188.7 -43.1 Q 184.5 -43.1 181.3 -45.2 L 181.3 -45.2 L 181.3 -45.2 Q 178.1 -47.3 178.1 -49.8 L 178.1 -49.8 L 178.1 -49.8 Q 178.1 -52.3 180 -53.8 L 180 -53.8 L 180 -53.8 Q 181.8 -55.3 184.5 -55.3 L 184.5 -55.3 L 184.5 -55.3 Q 187.2 -55.3 188.8 -54.3 L 188.8 -54.3 L 188.8 -54.3 Q 188 -52.1 188 -50.7 L 188 -50.7 L 188 -50.7 Q 188 -46.5 191.6 -46.5 L 191.6 -46.5 L 191.6 -46.5 Q 193.1 -46.5 194.1 -47.5 L 194.1 -47.5 L 194.1 -47.5 Q 195.2 -48.4 195.2 -50.1 L 195.2 -50.1 L 195.2 -50.1 Q 195.2 -53.4 189.7 -56.8 L 189.7 -56.8 L 189.7 -56.8 Q 185.2 -59.8 184.2 -60.9 L 184.2 -60.9 L 184.2 -60.9 Q 182.4 -63 182.4 -65.5 L 182.4 -65.5 L 182.4 -65.5 Q 182.4 -68.1 183.6 -70.5 L 183.6 -70.5 L 183.6 -70.5 Q 184.9 -72.9 187.1 -74.7 L 187.1 -74.7 L 187.1 -74.7 Q 191.8 -78.3 199.9 -78.3 L 199.9 -78.3 L 199.9 -78.3 Q 204.1 -78.3 206.5 -76.6 L 206.5 -76.6 L 206.5 -76.6 Q 209 -74.9 209 -72.1 L 209 -72.1 L 209 -72.1 Q 209 -69.3 207.3 -67.7 L 207.3 -67.7 L 207.3 -67.7 Q 205.6 -66.1 202.5 -66.1 L 202.5 -66.1 L 202.5 -66.1 Q 200.4 -66.1 199.4 -66.8 Z M 250.5 -64.9 L 263.4 -66.1 L 263.4 -66.1 Q 258.8 -56 258.8 -44.3 L 258.8 -44.3 L 258.8 -44.3 Q 257 -43.1 254.5 -43.1 L 254.5 -43.1 L 254.5 -43.1 Q 252 -43.1 250.4 -44.2 L 250.4 -44.2 L 250.4 -44.2 Q 248.8 -45.4 248.5 -46.6 L 248.5 -46.6 L 248.5 -46.6 Q 246.9 -45 244.3 -44 L 244.3 -44 L 244.3 -44 Q 241.7 -43.1 238.9 -43.1 L 238.9 -43.1 L 238.9 -43.1 Q 236.2 -43.1 233.8 -44 L 233.8 -44 L 233.8 -44 Q 231.4 -44.8 229.5 -46.8 L 229.5 -46.8 L 229.5 -46.8 Q 225.4 -51.2 225.4 -59.4 L 225.4 -59.4 L 225.4 -59.4 Q 225.4 -72.2 232.3 -79.9 L 232.3 -79.9 L 232.3 -79.9 Q 239.3 -87.9 251.8 -87.9 L 251.8 -87.9 L 251.8 -87.9 Q 260.4 -87.9 263.5 -83.4 L 263.5 -83.4 L 263.5 -83.4 Q 264.5 -82 264.5 -80.3 L 264.5 -80.3 L 264.5 -80.3 Q 264.5 -78.6 263.7 -77.1 L 263.7 -77.1 L 263.7 -77.1 Q 263 -75.7 261.8 -74.5 L 261.8 -74.5 L 261.8 -74.5 Q 259.1 -72 255.7 -72 L 255.7 -72 L 255.7 -72 Q 254.4 -72 253.1 -72.4 L 253.1 -72.4 L 253.1 -72.4 Q 253.3 -74.4 253.3 -76.6 L 253.3 -76.6 L 253.3 -76.6 Q 253.3 -78.8 253.2 -79.9 L 253.2 -79.9 L 253.2 -79.9 Q 253 -80.9 252.6 -81.7 L 252.6 -81.7 L 252.6 -81.7 Q 251.8 -83.4 250 -83.4 L 250 -83.4 L 250 -83.4 Q 248.2 -83.4 246.1 -81.5 L 246.1 -81.5 L 246.1 -81.5 Q 244.1 -79.5 242.5 -76.3 L 242.5 -76.3 L 242.5 -76.3 Q 239 -69.2 239 -60.5 L 239 -60.5 L 239 -60.5 Q 239 -56.6 240.5 -53.7 L 240.5 -53.7 L 240.5 -53.7 Q 242.2 -50.7 245.1 -50.7 L 245.1 -50.7 L 245.1 -50.7 Q 246.2 -50.7 247.1 -51.2 L 247.1 -51.2 L 247.1 -51.2 Q 248 -51.7 248.4 -52.1 L 248.4 -52.1 L 250.5 -64.9 Z M 269.3 -46.3 L 269.3 -46.3 L 269.3 -46.3 Q 267.8 -47.9 267.1 -50.5 L 267.1 -50.5 L 267.1 -50.5 Q 266.5 -53.2 266.5 -57.5 L 266.5 -57.5 L 266.5 -57.5 Q 266.5 -61.7 267.9 -65.6 L 267.9 -65.6 L 267.9 -65.6 Q 269.4 -69.6 272.1 -72.4 L 272.1 -72.4 L 272.1 -72.4 Q 277.6 -78.3 286.7 -78.3 L 286.7 -78.3 L 286.7 -78.3 Q 289.9 -78.3 292.3 -77.2 L 292.3 -77.2 L 303.3 -78.3 L 298.5 -53.3 L 298.5 -53.3 Q 298.3 -52.5 298.3 -51.1 L 298.3 -51.1 L 298.3 -51.1 Q 298.3 -49.7 299.2 -48.8 L 299.2 -48.8 L 299.2 -48.8 Q 300.1 -47.9 301.3 -47.8 L 301.3 -47.8 L 301.3 -47.8 Q 300.7 -45.6 298.4 -44.3 L 298.4 -44.3 L 298.4 -44.3 Q 296 -43.1 293.4 -43.1 L 293.4 -43.1 L 293.4 -43.1 Q 290.8 -43.1 289 -44 L 289 -44 L 289 -44 Q 287.3 -45 286.7 -46.7 L 286.7 -46.7 L 286.7 -46.7 Q 285.7 -45.1 283.5 -44.1 L 283.5 -44.1 L 283.5 -44.1 Q 281.4 -43.1 278.5 -43.1 L 278.5 -43.1 L 278.5 -43.1 Q 275.5 -43.1 273.2 -43.8 L 273.2 -43.8 L 273.2 -43.8 Q 270.8 -44.6 269.3 -46.3 Z M 282.8 -72.2 L 282.8 -72.2 L 282.8 -72.2 Q 282.1 -71.1 281.4 -69.1 L 281.4 -69.1 L 281.4 -69.1 Q 280.8 -67.2 279.7 -62 L 279.7 -62 L 279.7 -62 Q 278.7 -56.8 278.7 -53 L 278.7 -53 L 278.7 -53 Q 278.7 -49.3 279.3 -48.2 L 279.3 -48.2 L 279.3 -48.2 Q 279.8 -47.2 280.9 -47.2 L 280.9 -47.2 L 280.9 -47.2 Q 282.9 -47.2 284.4 -49.1 L 284.4 -49.1 L 284.4 -49.1 Q 285.9 -51.1 286.5 -54.5 L 286.5 -54.5 L 289.9 -73.3 L 289.9 -73.3 Q 288.5 -74.4 287 -74.4 L 287 -74.4 L 287 -74.4 Q 285.4 -74.4 284.5 -73.9 L 284.5 -73.9 L 284.5 -73.9 Q 283.5 -73.4 282.8 -72.2 Z M 322 -47.9 L 322 -47.9 L 322 -47.9 Q 320 -43.1 313.7 -43.1 L 313.7 -43.1 L 313.7 -43.1 Q 310.5 -43.1 308.4 -45.3 L 308.4 -45.3 L 308.4 -45.3 Q 306.8 -47.2 306.8 -49.3 L 306.8 -49.3 L 306.8 -49.3 Q 306.8 -54.1 309 -64.6 L 309 -64.6 L 313.7 -89.1 L 326.7 -90.4 L 320.5 -58 L 320.5 -58 Q 319.4 -53.3 319.4 -51.6 L 319.4 -51.6 L 319.4 -51.6 Q 319.4 -48 322 -47.9 Z M 342.7 -47.9 L 342.7 -47.9 L 342.7 -47.9 Q 340.8 -43.1 334.4 -43.1 L 334.4 -43.1 L 334.4 -43.1 Q 331.2 -43.1 329.2 -45.3 L 329.2 -45.3 L 329.2 -45.3 Q 327.5 -47.2 327.5 -49.3 L 327.5 -49.3 L 327.5 -49.3 Q 327.5 -54.1 329.8 -64.6 L 329.8 -64.6 L 334.4 -89.1 L 347.4 -90.4 L 341.2 -58 L 341.2 -58 Q 340.1 -53.3 340.1 -51.6 L 340.1 -51.6 L 340.1 -51.6 Q 340.1 -48 342.7 -47.9 Z M 374.1 -55.2 L 374.1 -55.2 L 374.1 -55.2 Q 375.7 -54.1 375.7 -51.7 L 375.7 -51.7 L 375.7 -51.7 Q 375.7 -49.3 374.5 -47.7 L 374.5 -47.7 L 374.5 -47.7 Q 373.3 -46.2 371.3 -45.2 L 371.3 -45.2 L 371.3 -45.2 Q 367.2 -43.1 362.8 -43.1 L 362.8 -43.1 L 362.8 -43.1 Q 358.4 -43.1 355.8 -44 L 355.8 -44 L 355.8 -44 Q 353.2 -45 351.4 -46.8 L 351.4 -46.8 L 351.4 -46.8 Q 348.1 -50.2 348.1 -56.4 L 348.1 -56.4 L 348.1 -56.4 Q 348.1 -66 353.3 -71.9 L 353.3 -71.9 L 353.3 -71.9 Q 358.9 -78.3 368.7 -78.3 L 368.7 -78.3 L 368.7 -78.3 Q 374.8 -78.3 377.8 -75.7 L 377.8 -75.7 L 377.8 -75.7 Q 380.1 -73.8 380.1 -70.6 L 380.1 -70.6 L 380.1 -70.6 Q 380.1 -59.4 360.6 -59.4 L 360.6 -59.4 L 360.6 -59.4 Q 360.3 -57.7 360.3 -56.3 L 360.3 -56.3 L 360.3 -56.3 Q 360.3 -53.4 361.7 -52.2 L 361.7 -52.2 L 361.7 -52.2 Q 363 -51.1 365.4 -51.1 L 365.4 -51.1 L 365.4 -51.1 Q 367.8 -51.1 370.4 -52.2 L 370.4 -52.2 L 370.4 -52.2 Q 373 -53.4 374.1 -55.2 Z M 361 -62.1 L 361 -62.1 L 361 -62.1 Q 365.6 -62.1 368.2 -64.9 L 368.2 -64.9 L 368.2 -64.9 Q 370.8 -67.6 370.8 -71.9 L 370.8 -71.9 L 370.8 -71.9 Q 370.8 -73.4 370.3 -74.2 L 370.3 -74.2 L 370.3 -74.2 Q 369.8 -75 368.7 -75 L 368.7 -75 L 368.7 -75 Q 367.6 -75 366.6 -74.6 L 366.6 -74.6 L 366.6 -74.6 Q 365.7 -74.2 364.8 -72.8 L 364.8 -72.8 L 364.8 -72.8 Q 362.4 -69.6 361 -62.1 Z M 402.3 -62.3 L 402.3 -62.3 L 402.3 -62.3 Q 404.6 -66.4 404.6 -70.6 L 404.6 -70.6 L 404.6 -70.6 Q 404.6 -73.3 402.6 -73.3 L 402.6 -73.3 L 402.6 -73.3 Q 401 -73.3 399.4 -70.7 L 399.4 -70.7 L 399.4 -70.7 Q 397.8 -68.1 397.3 -64.7 L 397.3 -64.7 L 393.9 -44.3 L 380.7 -43.1 L 387.2 -77 L 397.8 -78.3 L 396.6 -71.8 L 396.6 -71.8 Q 399.8 -78.3 406.8 -78.3 L 406.8 -78.3 L 406.8 -78.3 Q 410.5 -78.3 412.5 -76.3 L 412.5 -76.3 L 412.5 -76.3 Q 414.6 -74.4 414.6 -70.5 L 414.6 -70.5 L 414.6 -70.5 Q 414.6 -66.5 412 -64 L 412 -64 L 412 -64 Q 409.4 -61.6 405 -61.6 L 405 -61.6 L 405 -61.6 Q 403 -61.6 402.3 -62.3 Z M 435.9 -51.6 L 435.9 -51.6 L 435.9 -51.6 Q 432.6 -48.1 426.5 -48.1 L 426.5 -48.1 L 426.5 -48.1 Q 418.9 -48.1 417.3 -53.7 L 417.3 -53.7 L 417.3 -53.7 Q 416.8 -55.3 416.8 -57.2 L 416.8 -57.2 L 416.8 -57.2 Q 416.8 -59.1 417.2 -61 L 417.2 -61 L 420.2 -77 L 433.2 -78.3 L 429.7 -59.6 L 429.7 -59.6 Q 429.5 -58.8 429.3 -57.9 L 429.3 -57.9 L 429.3 -57.9 Q 429.1 -57 429.1 -56.1 L 429.1 -56.1 L 429.1 -56.1 Q 429.1 -55.2 429.5 -54.5 L 429.5 -54.5 L 429.5 -54.5 Q 429.8 -53.9 430.2 -53.6 L 430.2 -53.6 L 430.2 -53.6 Q 431 -53 432.4 -53 L 432.4 -53 L 432.4 -53 Q 433.8 -53 434.9 -54.7 L 434.9 -54.7 L 434.9 -54.7 Q 436.1 -56.4 436.7 -59.2 L 436.7 -59.2 L 440.2 -77 L 452.8 -78.3 L 448 -53.1 L 448 -53.1 Q 445.7 -40.8 440.8 -36 L 440.8 -36 L 440.8 -36 Q 438.3 -33.5 435.1 -32.5 L 435.1 -32.5 L 435.1 -32.5 Q 431.8 -31.5 427.7 -31.5 L 427.7 -31.5 L 427.7 -31.5 Q 421 -31.5 417.1 -33.6 L 417.1 -33.6 L 417.1 -33.6 Q 413.3 -35.7 413.3 -39.2 L 413.3 -39.2 L 413.3 -39.2 Q 413.3 -41.8 415.3 -43.3 L 415.3 -43.3 L 415.3 -43.3 Q 417.2 -44.8 420.3 -44.8 L 420.3 -44.8 L 420.3 -44.8 Q 423 -44.8 425 -43.7 L 425 -43.7 L 425 -43.7 Q 426.3 -43 426.8 -42.1 L 426.8 -42.1 L 426.8 -42.1 Q 425.4 -40.8 425.4 -38.7 L 425.4 -38.7 L 425.4 -38.7 Q 425.4 -35.9 427.9 -35.9 L 427.9 -35.9 L 427.9 -35.9 Q 432.2 -35.9 434.6 -45.6 L 434.6 -45.6 L 434.6 -45.6 Q 435.3 -48.5 435.9 -51.6 Z" fill="url(#editing-gradow-gradient)"></path></g></g><style>text {
  font-size: 64px;
  font-family: Arial Black;
  dominant-baseline: central;
  text-anchor: middle;
}</style></svg>