<svg width="651.6px" height="122.4px" xmlns="http://www.w3.org/2000/svg" viewBox="-75.82001953125001 13.800003051757812 651.6400390625 122.39999389648438" style="background: rgba(0, 0, 0, 0) none repeat scroll 0% 0%" preserveAspectRatio="xMidYMid"><defs><filter id="editing-raise" x="-100%" y="-100%" width="300%" height="300%"><feFlood flood-color="#3b4bad" result="flood-surface"></feFlood><feFlood flood-color="#777777" result="flood-extrude"></feFlood><feMorphology operator="erode" in="SourceAlpha" radius="1" result="erode"></feMorphology><feConvolveMatrix in="erode" result="shadow" order="11,8" divisor="1" kernelMatrix="0 0 0 1 1 1 1 1 0 0 0 0 0 1 0 0 0 0 0 1 0 0 0 0 1 0 0 0 0 0 1 0 0 0 0 1 0 0 0 0 0 1 0 0 0 0 1 0 0 0 0 0 1 0 0 0 0 0 1 0 0 0 1 0 0 0 0 0 0 1 1 0 1 1 0 0 0 0 0 0 0 0 1 0 0 0 0 0"></feConvolveMatrix><feOffset dx="0" dy="4" in="shadow" result="offset"></feOffset><feGaussianBlur in="offset" stdDeviation="0.2" result="blur"></feGaussianBlur><feComposite operator="in" in="flood-extrude" in2="blur" result="extrude"></feComposite><feMorphology operator="erode" in="SourceAlpha" radius="1" result="erode2"></feMorphology><feConvolveMatrix in="erode2" result="out" order="4,4" divisor="1" kernelMatrix="0 1 1 0 1 0 0 1 1 0 0 1 0 1 1 0 "></feConvolveMatrix><feComposite operator="in" in="flood-surface" in2="out" result="text"></feComposite><feMerge><feMergeNode in="extrude"></feMergeNode><feMergeNode in="text"></feMergeNode></feMerge></filter></defs><g filter="url(#editing-raise)"><g transform="matrix(1.3,0,0,1.9,-3.5,232.1)"><path d="M -28.9 -70.1 L -28.9 -70.1 L -28.9 -70.1 Q -30.9 -65.3 -37.2 -65.3 L -37.2 -65.3 L -37.2 -65.3 Q -40.5 -65.3 -42.5 -67.5 L -42.5 -67.5 L -42.5 -67.5 Q -44.2 -69.5 -44.2 -71.5 L -44.2 -71.5 L -44.2 -71.5 Q -44.2 -76.6 -41.9 -86.8 L -41.9 -86.8 L -39.5 -99.2 L -26.5 -100.5 L -30.4 -80.2 L -30.4 -80.2 Q -31.5 -75.5 -31.5 -73.8 L -31.5 -73.8 L -31.5 -73.8 Q -31.5 -70.2 -28.9 -70.1 Z M -38.3 -108.1 L -38.3 -108.1 L -38.3 -108.1 Q -38.3 -110.6 -36.3 -111.9 L -36.3 -111.9 L -36.3 -111.9 Q -34.2 -113.3 -31.2 -113.3 L -31.2 -113.3 L -31.2 -113.3 Q -28.2 -113.3 -26.3 -111.9 L -26.3 -111.9 L -26.3 -111.9 Q -24.5 -110.6 -24.5 -108.1 L -24.5 -108.1 L -24.5 -108.1 Q -24.5 -105.6 -26.5 -104.3 L -26.5 -104.3 L -26.5 -104.3 Q -28.5 -103 -31.6 -103 L -31.6 -103 L -31.6 -103 Q -34.6 -103 -36.5 -104.3 L -36.5 -104.3 L -36.5 -104.3 Q -38.3 -105.6 -38.3 -108.1 Z M 22.7 -65.3 L 22.7 -65.3 L 22.7 -65.3 Q 14.9 -65.3 14.9 -71.3 L 14.9 -71.3 L 14.9 -71.3 Q 14.9 -73.9 16 -79 L 16 -79 L 16 -79 Q 17.1 -84.1 17.5 -86.1 L 17.5 -86.1 L 17.5 -86.1 Q 18.4 -90.8 18.4 -92.3 L 18.4 -92.3 L 18.4 -92.3 Q 18.4 -95.5 16 -95.5 L 16 -95.5 L 16 -95.5 Q 14.4 -95.5 12.9 -93.3 L 12.9 -93.3 L 12.9 -93.3 Q 11.3 -91.1 10.6 -86.7 L 10.6 -86.7 L 6.7 -66.5 L -5.8 -65.3 L -2.4 -82.7 L -2.4 -82.7 Q -1.8 -85.5 -1.3 -88.8 L -1.3 -88.8 L -1.3 -88.8 Q -0.8 -92.1 -0.8 -92.6 L -0.8 -92.6 L -0.8 -92.6 Q -0.8 -95.5 -2.9 -95.5 L -2.9 -95.5 L -2.9 -95.5 Q -4.4 -95.5 -6 -93.4 L -6 -93.4 L -6 -93.4 Q -7.6 -91.2 -8.5 -86.7 L -8.5 -86.7 L -12.4 -66.5 L -25 -65.3 L -18.3 -99.2 L -7.9 -100.5 L -9 -94 L -9 -94 Q -7.3 -97.4 -4.2 -99 L -4.2 -99 L -4.2 -99 Q -1.2 -100.5 3.6 -100.5 L 3.6 -100.5 L 3.6 -100.5 Q 6.4 -100.5 8.2 -99.1 L 8.2 -99.1 L 8.2 -99.1 Q 10 -97.8 10.6 -95.6 L 10.6 -95.6 L 10.6 -95.6 Q 11.6 -97.8 14.4 -99.1 L 14.4 -99.1 L 14.4 -99.1 Q 17.2 -100.5 20.6 -100.5 L 20.6 -100.5 L 20.6 -100.5 Q 24.1 -100.5 25.8 -99.7 L 25.8 -99.7 L 25.8 -99.7 Q 27.5 -99 28.5 -97.8 L 28.5 -97.8 L 28.5 -97.8 Q 30.2 -95.5 30.2 -91.4 L 30.2 -91.4 L 30.2 -91.4 Q 30.2 -87.4 28.5 -79 L 28.5 -79 L 28.5 -79 Q 27.6 -74.9 27.6 -73.4 L 27.6 -73.4 L 27.6 -73.4 Q 27.6 -71.9 28.4 -71 L 28.4 -71 L 28.4 -71 Q 29.3 -70.1 30.6 -70 L 30.6 -70 L 30.6 -70 Q 29.9 -67.8 27.7 -66.5 L 27.7 -66.5 L 27.7 -66.5 Q 25.5 -65.3 22.7 -65.3 Z M 38.3 -68.5 L 38.3 -68.5 L 38.3 -68.5 Q 36.8 -70.1 36.1 -72.7 L 36.1 -72.7 L 36.1 -72.7 Q 35.5 -75.4 35.5 -79.7 L 35.5 -79.7 L 35.5 -79.7 Q 35.5 -83.9 36.9 -87.8 L 36.9 -87.8 L 36.9 -87.8 Q 38.4 -91.8 41.1 -94.6 L 41.1 -94.6 L 41.1 -94.6 Q 46.6 -100.5 55.7 -100.5 L 55.7 -100.5 L 55.7 -100.5 Q 58.9 -100.5 61.3 -99.4 L 61.3 -99.4 L 72.3 -100.5 L 67.5 -75.5 L 67.5 -75.5 Q 67.3 -74.7 67.3 -73.3 L 67.3 -73.3 L 67.3 -73.3 Q 67.3 -71.9 68.2 -71 L 68.2 -71 L 68.2 -71 Q 69.1 -70.1 70.3 -70 L 70.3 -70 L 70.3 -70 Q 69.7 -67.8 67.4 -66.5 L 67.4 -66.5 L 67.4 -66.5 Q 65 -65.3 62.4 -65.3 L 62.4 -65.3 L 62.4 -65.3 Q 59.8 -65.3 58 -66.2 L 58 -66.2 L 58 -66.2 Q 56.3 -67.2 55.7 -68.9 L 55.7 -68.9 L 55.7 -68.9 Q 54.7 -67.3 52.5 -66.3 L 52.5 -66.3 L 52.5 -66.3 Q 50.4 -65.3 47.5 -65.3 L 47.5 -65.3 L 47.5 -65.3 Q 44.5 -65.3 42.2 -66 L 42.2 -66 L 42.2 -66 Q 39.8 -66.8 38.3 -68.5 Z M 51.8 -94.4 L 51.8 -94.4 L 51.8 -94.4 Q 51.1 -93.3 50.4 -91.3 L 50.4 -91.3 L 50.4 -91.3 Q 49.8 -89.4 48.7 -84.2 L 48.7 -84.2 L 48.7 -84.2 Q 47.7 -79 47.7 -75.2 L 47.7 -75.2 L 47.7 -75.2 Q 47.7 -71.5 48.3 -70.4 L 48.3 -70.4 L 48.3 -70.4 Q 48.8 -69.4 49.9 -69.4 L 49.9 -69.4 L 49.9 -69.4 Q 51.9 -69.4 53.4 -71.3 L 53.4 -71.3 L 53.4 -71.3 Q 54.9 -73.3 55.5 -76.7 L 55.5 -76.7 L 58.9 -95.5 L 58.9 -95.5 Q 57.5 -96.6 56 -96.6 L 56 -96.6 L 56 -96.6 Q 54.4 -96.6 53.5 -96.1 L 53.5 -96.1 L 53.5 -96.1 Q 52.5 -95.6 51.8 -94.4 Z M 80 -93.3 L 80 -93.3 L 80 -93.3 Q 82.2 -96.4 85.5 -98.4 L 85.5 -98.4 L 85.5 -98.4 Q 88.8 -100.5 92.8 -100.5 L 92.8 -100.5 L 92.8 -100.5 Q 96.8 -100.5 98.7 -99.2 L 98.7 -99.2 L 111.3 -100.5 L 106.9 -75.9 L 106.9 -75.9 Q 104.7 -63.3 100 -58.4 L 100 -58.4 L 100 -58.4 Q 95.4 -53.7 86.6 -53.7 L 86.6 -53.7 L 86.6 -53.7 Q 79.9 -53.7 76 -55.8 L 76 -55.8 L 76 -55.8 Q 72.2 -58 72.2 -61.5 L 72.2 -61.5 L 72.2 -61.5 Q 72.2 -64.1 74.2 -65.6 L 74.2 -65.6 L 74.2 -65.6 Q 76.2 -67.1 79.2 -67.1 L 79.2 -67.1 L 79.2 -67.1 Q 81.9 -67.1 84 -65.9 L 84 -65.9 L 84 -65.9 Q 85.2 -65.3 85.8 -64.4 L 85.8 -64.4 L 85.8 -64.4 Q 84.3 -63.1 84.3 -61 L 84.3 -61 L 84.3 -61 Q 84.3 -58.2 86.8 -58.2 L 86.8 -58.2 L 86.8 -58.2 Q 91.1 -58.2 93.6 -68.3 L 93.6 -68.3 L 93.6 -68.3 Q 94.3 -71.1 94.8 -73.8 L 94.8 -73.8 L 94.8 -73.8 Q 92 -70.3 85.4 -70.3 L 85.4 -70.3 L 85.4 -70.3 Q 80.9 -70.3 78.3 -72.5 L 78.3 -72.5 L 78.3 -72.5 Q 75.6 -74.7 75.6 -79.8 L 75.6 -79.8 L 75.6 -79.8 Q 75.6 -83 76.7 -86.6 L 76.7 -86.6 L 76.7 -86.6 Q 77.8 -90.2 80 -93.3 Z M 88.3 -79.6 L 88.3 -79.6 L 88.3 -79.6 Q 88.3 -75.2 90.6 -75.2 L 90.6 -75.2 L 90.6 -75.2 Q 92.1 -75.2 93.6 -76.9 L 93.6 -76.9 L 93.6 -76.9 Q 94.7 -78.2 95.2 -80.2 L 95.2 -80.2 L 98.4 -96.7 L 98.4 -96.7 Q 98.1 -96.7 97.8 -96.9 L 97.8 -96.9 L 97.8 -96.9 Q 97.1 -97.1 96.3 -97.1 L 96.3 -97.1 L 96.3 -97.1 Q 92.4 -97.1 90.1 -90.7 L 90.1 -90.7 L 90.1 -90.7 Q 88.3 -85.7 88.3 -79.6 Z M 139.7 -77.4 L 139.7 -77.4 L 139.7 -77.4 Q 141.3 -76.3 141.3 -73.9 L 141.3 -73.9 L 141.3 -73.9 Q 141.3 -71.5 140.1 -69.9 L 140.1 -69.9 L 140.1 -69.9 Q 138.9 -68.4 136.9 -67.4 L 136.9 -67.4 L 136.9 -67.4 Q 132.8 -65.3 128.4 -65.3 L 128.4 -65.3 L 128.4 -65.3 Q 124 -65.3 121.4 -66.2 L 121.4 -66.2 L 121.4 -66.2 Q 118.8 -67.2 117.1 -69 L 117.1 -69 L 117.1 -69 Q 113.7 -72.4 113.7 -78.6 L 113.7 -78.6 L 113.7 -78.6 Q 113.7 -88.2 118.9 -94.1 L 118.9 -94.1 L 118.9 -94.1 Q 124.5 -100.5 134.3 -100.5 L 134.3 -100.5 L 134.3 -100.5 Q 140.4 -100.5 143.4 -97.9 L 143.4 -97.9 L 143.4 -97.9 Q 145.7 -96 145.7 -92.8 L 145.7 -92.8 L 145.7 -92.8 Q 145.7 -81.6 126.2 -81.6 L 126.2 -81.6 L 126.2 -81.6 Q 125.9 -79.9 125.9 -78.5 L 125.9 -78.5 L 125.9 -78.5 Q 125.9 -75.6 127.3 -74.4 L 127.3 -74.4 L 127.3 -74.4 Q 128.6 -73.3 131 -73.3 L 131 -73.3 L 131 -73.3 Q 133.4 -73.3 136 -74.4 L 136 -74.4 L 136 -74.4 Q 138.6 -75.6 139.7 -77.4 Z M 126.7 -84.3 L 126.7 -84.3 L 126.7 -84.3 Q 131.2 -84.3 133.8 -87.1 L 133.8 -87.1 L 133.8 -87.1 Q 136.4 -89.8 136.4 -94.1 L 136.4 -94.1 L 136.4 -94.1 Q 136.4 -95.6 135.9 -96.4 L 135.9 -96.4 L 135.9 -96.4 Q 135.4 -97.2 134.3 -97.2 L 134.3 -97.2 L 134.3 -97.2 Q 133.2 -97.2 132.3 -96.8 L 132.3 -96.8 L 132.3 -96.8 Q 131.3 -96.4 130.4 -95 L 130.4 -95 L 130.4 -95 Q 128 -91.8 126.7 -84.3 Z M 167 -89 L 167 -89 L 167 -89 Q 167.9 -91.4 167.9 -93.4 L 167.9 -93.4 L 167.9 -93.4 Q 167.9 -97.2 164.8 -97.2 L 164.8 -97.2 L 164.8 -97.2 Q 163.2 -97.2 161.9 -95.8 L 161.9 -95.8 L 161.9 -95.8 Q 160.6 -94.3 160.6 -92.5 L 160.6 -92.5 L 160.6 -92.5 Q 160.6 -91.2 161.6 -90.2 L 161.6 -90.2 L 161.6 -90.2 Q 163.1 -88.8 166.8 -86.5 L 166.8 -86.5 L 166.8 -86.5 Q 170.6 -84.2 172.1 -82.3 L 172.1 -82.3 L 172.1 -82.3 Q 173.5 -80.4 173.5 -77.8 L 173.5 -77.8 L 173.5 -77.8 Q 173.5 -75.2 172.3 -72.9 L 172.3 -72.9 L 172.3 -72.9 Q 171 -70.5 168.8 -68.8 L 168.8 -68.8 L 168.8 -68.8 Q 164 -65.3 156.3 -65.3 L 156.3 -65.3 L 156.3 -65.3 Q 152.1 -65.3 148.9 -67.4 L 148.9 -67.4 L 148.9 -67.4 Q 145.7 -69.5 145.7 -72 L 145.7 -72 L 145.7 -72 Q 145.7 -74.5 147.5 -76 L 147.5 -76 L 147.5 -76 Q 149.4 -77.5 152.1 -77.5 L 152.1 -77.5 L 152.1 -77.5 Q 154.7 -77.5 156.4 -76.5 L 156.4 -76.5 L 156.4 -76.5 Q 155.6 -74.3 155.6 -72.9 L 155.6 -72.9 L 155.6 -72.9 Q 155.6 -68.7 159.2 -68.7 L 159.2 -68.7 L 159.2 -68.7 Q 160.7 -68.7 161.7 -69.7 L 161.7 -69.7 L 161.7 -69.7 Q 162.7 -70.6 162.7 -72.3 L 162.7 -72.3 L 162.7 -72.3 Q 162.7 -75.6 157.2 -79 L 157.2 -79 L 157.2 -79 Q 152.8 -82 151.7 -83.1 L 151.7 -83.1 L 151.7 -83.1 Q 150 -85.2 150 -87.7 L 150 -87.7 L 150 -87.7 Q 150 -90.3 151.2 -92.7 L 151.2 -92.7 L 151.2 -92.7 Q 152.4 -95.1 154.7 -96.9 L 154.7 -96.9 L 154.7 -96.9 Q 159.4 -100.5 167.5 -100.5 L 167.5 -100.5 L 167.5 -100.5 Q 171.6 -100.5 174.1 -98.8 L 174.1 -98.8 L 174.1 -98.8 Q 176.6 -97.1 176.6 -94.3 L 176.6 -94.3 L 176.6 -94.3 Q 176.6 -91.5 174.9 -89.9 L 174.9 -89.9 L 174.9 -89.9 Q 173.2 -88.3 170.1 -88.3 L 170.1 -88.3 L 170.1 -88.3 Q 168 -88.3 167 -89 Z M 196.7 -93.3 L 196.7 -93.3 L 196.7 -93.3 Q 198.8 -96.4 202.1 -98.4 L 202.1 -98.4 L 202.1 -98.4 Q 205.4 -100.5 209.5 -100.5 L 209.5 -100.5 L 209.5 -100.5 Q 213.5 -100.5 215.4 -99.2 L 215.4 -99.2 L 228 -100.5 L 223.6 -75.9 L 223.6 -75.9 Q 221.4 -63.3 216.6 -58.4 L 216.6 -58.4 L 216.6 -58.4 Q 212.1 -53.7 203.3 -53.7 L 203.3 -53.7 L 203.3 -53.7 Q 196.5 -53.7 192.7 -55.8 L 192.7 -55.8 L 192.7 -55.8 Q 188.9 -58 188.9 -61.5 L 188.9 -61.5 L 188.9 -61.5 Q 188.9 -64.1 190.8 -65.6 L 190.8 -65.6 L 190.8 -65.6 Q 192.8 -67.1 195.9 -67.1 L 195.9 -67.1 L 195.9 -67.1 Q 198.6 -67.1 200.6 -65.9 L 200.6 -65.9 L 200.6 -65.9 Q 201.9 -65.3 202.4 -64.4 L 202.4 -64.4 L 202.4 -64.4 Q 201 -63.1 201 -61 L 201 -61 L 201 -61 Q 201 -58.2 203.5 -58.2 L 203.5 -58.2 L 203.5 -58.2 Q 207.8 -58.2 210.2 -68.3 L 210.2 -68.3 L 210.2 -68.3 Q 210.9 -71.1 211.5 -73.8 L 211.5 -73.8 L 211.5 -73.8 Q 208.6 -70.3 202.1 -70.3 L 202.1 -70.3 L 202.1 -70.3 Q 197.6 -70.3 194.9 -72.5 L 194.9 -72.5 L 194.9 -72.5 Q 192.3 -74.7 192.3 -79.8 L 192.3 -79.8 L 192.3 -79.8 Q 192.3 -83 193.4 -86.6 L 193.4 -86.6 L 193.4 -86.6 Q 194.5 -90.2 196.7 -93.3 Z M 205 -79.6 L 205 -79.6 L 205 -79.6 Q 205 -75.2 207.2 -75.2 L 207.2 -75.2 L 207.2 -75.2 Q 208.8 -75.2 210.2 -76.9 L 210.2 -76.9 L 210.2 -76.9 Q 211.4 -78.2 211.8 -80.2 L 211.8 -80.2 L 215.1 -96.7 L 215.1 -96.7 Q 214.8 -96.7 214.5 -96.9 L 214.5 -96.9 L 214.5 -96.9 Q 213.8 -97.1 213 -97.1 L 213 -97.1 L 213 -97.1 Q 209.1 -97.1 206.8 -90.7 L 206.8 -90.7 L 206.8 -90.7 Q 205 -85.7 205 -79.6 Z M 233.2 -68.5 L 233.2 -68.5 L 233.2 -68.5 Q 231.7 -70.1 231.1 -72.7 L 231.1 -72.7 L 231.1 -72.7 Q 230.4 -75.4 230.4 -79.7 L 230.4 -79.7 L 230.4 -79.7 Q 230.4 -83.9 231.9 -87.8 L 231.9 -87.8 L 231.9 -87.8 Q 233.3 -91.8 236 -94.6 L 236 -94.6 L 236 -94.6 Q 241.5 -100.5 250.6 -100.5 L 250.6 -100.5 L 250.6 -100.5 Q 253.9 -100.5 256.3 -99.4 L 256.3 -99.4 L 267.2 -100.5 L 262.5 -75.5 L 262.5 -75.5 Q 262.3 -74.7 262.3 -73.3 L 262.3 -73.3 L 262.3 -73.3 Q 262.3 -71.9 263.1 -71 L 263.1 -71 L 263.1 -71 Q 264 -70.1 265.3 -70 L 265.3 -70 L 265.3 -70 Q 264.6 -67.8 262.3 -66.5 L 262.3 -66.5 L 262.3 -66.5 Q 260 -65.3 257.3 -65.3 L 257.3 -65.3 L 257.3 -65.3 Q 254.7 -65.3 253 -66.2 L 253 -66.2 L 253 -66.2 Q 251.2 -67.2 250.7 -68.9 L 250.7 -68.9 L 250.7 -68.9 Q 249.7 -67.3 247.5 -66.3 L 247.5 -66.3 L 247.5 -66.3 Q 245.3 -65.3 242.4 -65.3 L 242.4 -65.3 L 242.4 -65.3 Q 239.5 -65.3 237.1 -66 L 237.1 -66 L 237.1 -66 Q 234.7 -66.8 233.2 -68.5 Z M 246.7 -94.4 L 246.7 -94.4 L 246.7 -94.4 Q 246 -93.3 245.4 -91.3 L 245.4 -91.3 L 245.4 -91.3 Q 244.7 -89.4 243.7 -84.2 L 243.7 -84.2 L 243.7 -84.2 Q 242.6 -79 242.6 -75.2 L 242.6 -75.2 L 242.6 -75.2 Q 242.6 -71.5 243.2 -70.4 L 243.2 -70.4 L 243.2 -70.4 Q 243.8 -69.4 244.8 -69.4 L 244.8 -69.4 L 244.8 -69.4 Q 246.8 -69.4 248.3 -71.3 L 248.3 -71.3 L 248.3 -71.3 Q 249.9 -73.3 250.4 -76.7 L 250.4 -76.7 L 253.8 -95.5 L 253.8 -95.5 Q 252.5 -96.6 250.9 -96.6 L 250.9 -96.6 L 250.9 -96.6 Q 249.3 -96.6 248.4 -96.1 L 248.4 -96.1 L 248.4 -96.1 Q 247.5 -95.6 246.7 -94.4 Z M 285.9 -70.1 L 285.9 -70.1 L 285.9 -70.1 Q 284 -65.3 277.6 -65.3 L 277.6 -65.3 L 277.6 -65.3 Q 274.4 -65.3 272.4 -67.5 L 272.4 -67.5 L 272.4 -67.5 Q 270.7 -69.4 270.7 -71.5 L 270.7 -71.5 L 270.7 -71.5 Q 270.7 -76.3 273 -86.8 L 273 -86.8 L 277.6 -111.3 L 290.6 -112.6 L 284.4 -80.2 L 284.4 -80.2 Q 283.3 -75.5 283.3 -73.8 L 283.3 -73.8 L 283.3 -73.8 Q 283.3 -70.2 285.9 -70.1 Z M 306.7 -70.1 L 306.7 -70.1 L 306.7 -70.1 Q 304.7 -65.3 298.4 -65.3 L 298.4 -65.3 L 298.4 -65.3 Q 295.2 -65.3 293.1 -67.5 L 293.1 -67.5 L 293.1 -67.5 Q 291.5 -69.4 291.5 -71.5 L 291.5 -71.5 L 291.5 -71.5 Q 291.5 -76.3 293.7 -86.8 L 293.7 -86.8 L 298.4 -111.3 L 311.4 -112.6 L 305.1 -80.2 L 305.1 -80.2 Q 304.1 -75.5 304.1 -73.8 L 304.1 -73.8 L 304.1 -73.8 Q 304.1 -70.2 306.7 -70.1 Z M 338 -77.4 L 338 -77.4 L 338 -77.4 Q 339.6 -76.3 339.6 -73.9 L 339.6 -73.9 L 339.6 -73.9 Q 339.6 -71.5 338.4 -69.9 L 338.4 -69.9 L 338.4 -69.9 Q 337.2 -68.4 335.2 -67.4 L 335.2 -67.4 L 335.2 -67.4 Q 331.1 -65.3 326.7 -65.3 L 326.7 -65.3 L 326.7 -65.3 Q 322.3 -65.3 319.7 -66.2 L 319.7 -66.2 L 319.7 -66.2 Q 317.1 -67.2 315.4 -69 L 315.4 -69 L 315.4 -69 Q 312 -72.4 312 -78.6 L 312 -78.6 L 312 -78.6 Q 312 -88.2 317.2 -94.1 L 317.2 -94.1 L 317.2 -94.1 Q 322.9 -100.5 332.7 -100.5 L 332.7 -100.5 L 332.7 -100.5 Q 338.7 -100.5 341.8 -97.9 L 341.8 -97.9 L 341.8 -97.9 Q 344 -96 344 -92.8 L 344 -92.8 L 344 -92.8 Q 344 -81.6 324.5 -81.6 L 324.5 -81.6 L 324.5 -81.6 Q 324.3 -79.9 324.3 -78.5 L 324.3 -78.5 L 324.3 -78.5 Q 324.3 -75.6 325.6 -74.4 L 325.6 -74.4 L 325.6 -74.4 Q 326.9 -73.3 329.3 -73.3 L 329.3 -73.3 L 329.3 -73.3 Q 331.8 -73.3 334.4 -74.4 L 334.4 -74.4 L 334.4 -74.4 Q 337 -75.6 338 -77.4 Z M 325 -84.3 L 325 -84.3 L 325 -84.3 Q 329.5 -84.3 332.2 -87.1 L 332.2 -87.1 L 332.2 -87.1 Q 334.8 -89.8 334.8 -94.1 L 334.8 -94.1 L 334.8 -94.1 Q 334.8 -95.6 334.2 -96.4 L 334.2 -96.4 L 334.2 -96.4 Q 333.7 -97.2 332.6 -97.2 L 332.6 -97.2 L 332.6 -97.2 Q 331.5 -97.2 330.6 -96.8 L 330.6 -96.8 L 330.6 -96.8 Q 329.7 -96.4 328.7 -95 L 328.7 -95 L 328.7 -95 Q 326.3 -91.8 325 -84.3 Z M 366.2 -84.5 L 366.2 -84.5 L 366.2 -84.5 Q 368.5 -88.6 368.5 -92.8 L 368.5 -92.8 L 368.5 -92.8 Q 368.5 -95.5 366.5 -95.5 L 366.5 -95.5 L 366.5 -95.5 Q 365 -95.5 363.4 -92.9 L 363.4 -92.9 L 363.4 -92.9 Q 361.7 -90.3 361.2 -86.9 L 361.2 -86.9 L 357.9 -66.5 L 344.6 -65.3 L 351.2 -99.2 L 361.7 -100.5 L 360.6 -94 L 360.6 -94 Q 363.7 -100.5 370.7 -100.5 L 370.7 -100.5 L 370.7 -100.5 Q 374.5 -100.5 376.5 -98.5 L 376.5 -98.5 L 376.5 -98.5 Q 378.5 -96.6 378.5 -92.7 L 378.5 -92.7 L 378.5 -92.7 Q 378.5 -88.7 375.9 -86.2 L 375.9 -86.2 L 375.9 -86.2 Q 373.3 -83.8 368.9 -83.8 L 368.9 -83.8 L 368.9 -83.8 Q 367 -83.8 366.2 -84.5 Z M 399.9 -73.8 L 399.9 -73.8 L 399.9 -73.8 Q 396.5 -70.3 390.5 -70.3 L 390.5 -70.3 L 390.5 -70.3 Q 382.8 -70.3 381.2 -75.9 L 381.2 -75.9 L 381.2 -75.9 Q 380.7 -77.5 380.7 -79.4 L 380.7 -79.4 L 380.7 -79.4 Q 380.7 -81.3 381.1 -83.2 L 381.1 -83.2 L 384.1 -99.2 L 397.1 -100.5 L 393.6 -81.8 L 393.6 -81.8 Q 393.5 -81 393.3 -80.1 L 393.3 -80.1 L 393.3 -80.1 Q 393.1 -79.2 393.1 -78.3 L 393.1 -78.3 L 393.1 -78.3 Q 393.1 -77.4 393.4 -76.7 L 393.4 -76.7 L 393.4 -76.7 Q 393.7 -76.1 394.2 -75.8 L 394.2 -75.8 L 394.2 -75.8 Q 394.9 -75.2 396.3 -75.2 L 396.3 -75.2 L 396.3 -75.2 Q 397.7 -75.2 398.9 -76.9 L 398.9 -76.9 L 398.9 -76.9 Q 400.1 -78.6 400.6 -81.4 L 400.6 -81.4 L 404.2 -99.2 L 416.8 -100.5 L 412 -75.3 L 412 -75.3 Q 409.6 -63 404.7 -58.2 L 404.7 -58.2 L 404.7 -58.2 Q 402.2 -55.7 399 -54.7 L 399 -54.7 L 399 -54.7 Q 395.8 -53.7 391.6 -53.7 L 391.6 -53.7 L 391.6 -53.7 Q 384.9 -53.7 381.1 -55.8 L 381.1 -55.8 L 381.1 -55.8 Q 377.2 -57.9 377.2 -61.4 L 377.2 -61.4 L 377.2 -61.4 Q 377.2 -64 379.2 -65.5 L 379.2 -65.5 L 379.2 -65.5 Q 381.2 -67 384.3 -67 L 384.3 -67 L 384.3 -67 Q 386.9 -67 389 -65.9 L 389 -65.9 L 389 -65.9 Q 390.2 -65.2 390.8 -64.3 L 390.8 -64.3 L 390.8 -64.3 Q 389.3 -63 389.3 -60.9 L 389.3 -60.9 L 389.3 -60.9 Q 389.3 -58.1 391.9 -58.1 L 391.9 -58.1 L 391.9 -58.1 Q 396.1 -58.1 398.5 -67.8 L 398.5 -67.8 L 398.5 -67.8 Q 399.2 -70.7 399.9 -73.8 Z"></path></g></g><style>text {
  font-size: 64px;
  font-family: Arial Black;
  dominant-baseline: central;
  text-anchor: middle;
}</style></svg>